HIERARCHY
ROOT Hips
{
  OFFSET 196.326 95.9168 97.7182
  CHANNELS 6 Xposition Yposition Zposition Zrotation Xrotation Yrotation
  JOINT LeftUpLeg
  {
    OFFSET 8.64259 1.95398 -2.38835
    CHANNELS 3 Zrotation Xrotation Yrotation
    JOINT LeftLeg
    {
      OFFSET 43.7702 0 0
      CHANNELS 3 Zrotation Xrotation Yrotation
      JOINT LeftFoot
      {
        OFFSET 40.6238 0 0
        CHANNELS 3 Zrotation Xrotation Yrotation
        JOINT LeftToeBase
        {
          OFFSET 12.7242 0 0
          CHANNELS 3 Zrotation Xrotation Yrotation
          End Site
          {
            OFFSET 0 0 0
          }
        }
      }
    }
  }
  JOINT RightUpLeg
  {
    OFFSET -8.2249 1.95398 -2.59336
    CHANNELS 3 Zrotation Xrotation Yrotation
    JOINT RightLeg
    {
      OFFSET 43.5653 0 0
      CHANNELS 3 Zrotation Xrotation Yrotation
      JOINT RightFoot
      {
        OFFSET 40.6238 0 0
        CHANNELS 3 Zrotation Xrotation Yrotation
        JOINT RightToeBase
        {
          OFFSET 12.7242 0 0
          CHANNELS 3 Zrotation Xrotation Yrotation
          End Site
          {
            OFFSET 0 0 0
          }
        }
      }
    }
  }
  JOINT Spine
  {
    OFFSET 0.165834 0.87714 6.61349
    CHANNELS 3 Zrotation Xrotation Yrotation
    JOINT Spine1
    {
      OFFSET 7.38963 1.71661e-005 0
      CHANNELS 3 Zrotation Xrotation Yrotation
      JOINT Spine2
      {
        OFFSET 11.9445 1.14441e-005 0
        CHANNELS 3 Zrotation Xrotation Yrotation
        JOINT Spine3
        {
          OFFSET 14.7254 4.19617e-005 0
          CHANNELS 3 Zrotation Xrotation Yrotation
          JOINT Spine4
          {
            OFFSET 10.9679 0 0
            CHANNELS 3 Zrotation Xrotation Yrotation
            JOINT RightShoulder
            {
              OFFSET 2.46616 -1.6653 3.69651
              CHANNELS 3 Zrotation Xrotation Yrotation
              JOINT RightArm
              {
                OFFSET 13.0012 0 0
                CHANNELS 3 Zrotation Xrotation Yrotation
                JOINT RightForeArm
                {
                  OFFSET 28.7848 1.52588e-005 0
                  CHANNELS 3 Zrotation Xrotation Yrotation
                  JOINT RightHand
                  {
                    OFFSET 26.5688 1.52588e-005 0
                    CHANNELS 3 Zrotation Xrotation Yrotation
                    End Site
                    {
                      OFFSET 0 0 0
                    }
                  }
                }
              }
            }
            JOINT LeftShoulder
            {
              OFFSET 2.38034 -1.29275 -3.75231
              CHANNELS 3 Zrotation Xrotation Yrotation
              JOINT LeftArm
              {
                OFFSET 16.3182 6.10351e-005 0
                CHANNELS 3 Zrotation Xrotation Yrotation
                JOINT LeftForeArm
                {
                  OFFSET 27.0901 0 0
                  CHANNELS 3 Zrotation Xrotation Yrotation
                  JOINT LeftHand
                  {
                    OFFSET 24.5451 1.52588e-005 0
                    CHANNELS 3 Zrotation Xrotation Yrotation
                    End Site
                    {
                      OFFSET 0 0 0
                    }
                  }
                }
              }
            }
            JOINT Neck
            {
              OFFSET 5.0226 -0.0266342 0
              CHANNELS 3 Zrotation Xrotation Yrotation
              JOINT Head
              {
                OFFSET 6.69363 2.86102e-005 0
                CHANNELS 3 Zrotation Xrotation Yrotation
                End Site
                {
                  OFFSET 0 0 0
                }
              }
            }
          }
        }
      }
    }
  }
}
MOTION
Frames:	12
Frame Time:	0.0416667
-2.95287 96.6638 -8.44331 73.0054 -49.2703 78.1675 -171.949 40.2699 91.4794 -10.7482 8.6471 -4.06913 42.7896 -12.058 -1.00376 46.674 19.7805 0.208029 178.237 0.0421945 90.0054 -59.9413 7.46047 -5.26906 29.865 3.00321 4.15013 14.2891 -3.36274 12.7127 1.59641 7.00019 -89.7961 12.8782 3.26775 0.0142026 1.21139 3.26522 -0.129794 -21.3544 3.11226 0.996599 -1.3418 3.11226 0.996599 85.1648 -45.4634 -109.683 41.3085 -24.5292 23.6522 -21.8075 15.3375 -110.039 -28.3191 -1.95266 3.27839 -92.3746 -38.8013 71.9947 -55.3599 5.57946 46.7261 8.84951 -4.62223 -92.865 42.0776 3.55617 4.53899 10.512 -1.74729 -0.67301 -2.62634 -1.51324 1.08416 
3.46051 94.311 -1.81393 77.1741 -47.4868 79.8852 -170.482 35.8634 87.7269 -15.7991 16.4934 -4.91949 41.718 -11.8715 -2.61109 51.2041 26.0661 4.69905 176.786 5.29354 90.4741 -78.0842 10.0424 -5.12282 28.9614 2.46078 3.63856 13.6879 -4.03126 15.441 1.22722 7.24286 -89.5714 12.3843 2.64212 0.555545 0.715974 2.66401 0.438631 -21.8362 2.35295 1.32431 -1.82357 2.35296 1.32431 84.3164 -47.1588 -110.42 40.0318 -21.1084 24.9295 -15.8682 9.14904 -105.282 -27.8526 -1.23771 0.178893 -94.0411 -39.8837 69.5779 -51.8324 4.57393 43.9913 10.0465 -3.92186 -91.7264 41.5281 3.93924 5.61295 8.2879 -1.58687 -2.43797 -1.2231 -0.950594 1.91714 
9.68198 91.9557 4.57554 79.3909 -45.6098 80.3747 -169.782 35.3121 85.0973 -28.3367 27.8266 -6.96622 52.7521 -1.54562 13.4886 52.4537 19.5626 -23.0844 173.689 13.9569 90.6047 -94.2497 14.8474 -5.11603 27.5021 0.603876 1.70111 14.1247 -4.12927 16.3782 0.828465 7.41312 -89.2823 12.0366 1.98599 1.21491 0.366703 2.03752 1.1263 -22.1719 1.5291 1.75561 -2.1592 1.52907 1.75559 83.4853 -49.622 -110.834 38.4806 -20.0402 25.7474 -15.8381 8.32307 -100.723 -27.2437 -1.32789 0.732302 -96.1013 -40.4682 66.4153 -47.4688 3.58103 40.8927 10.645 -3.67221 -91.6357 40.9725 3.39476 4.38578 6.78825 -1.37486 -4.96455 0.40207 -0.17551 3.05923 
15.7324 89.6868 10.3436 79.8825 -46.6832 79.2863 -168.349 35.2852 82.583 -42.7755 19.7639 -6.27256 63.8186 9.18698 15.5728 43.5713 12.2009 -30.649 172.44 26.5667 91.4147 -107.711 18.52 -6.16267 24.1796 -1.04931 -0.078035 15.37 -3.70432 15.529 0.477423 7.55198 -88.9459 11.7534 1.4446 1.94954 0.0819117 1.52898 1.88408 -22.4438 0.792074 2.29339 -2.43111 0.792073 2.29339 82.5185 -49.9742 -112.159 39.0311 -19.3765 26.3098 -15.601 5.15255 -93.2136 -29.9584 -1.51733 1.03036 -97.0145 -41.5389 65.357 -42.6612 3.07784 36.5484 11.9241 -3.51002 -92.3305 42.0449 4.15842 6.01386 7.56804 -0.0885106 -6.15513 1.18403 1.40364 3.27689 
21.2548 87.763 15.7597 78.8961 -45.1992 77.6088 -169.201 33.6226 80.088 -49.282 19.041 -4.80115 66.09 14.7629 21.44 54.5582 20.1101 -26.9649 169.51 41.7015 95.1205 -116.587 16.6364 -7.0623 20.9079 -0.23941 0.850402 18.8959 -2.87218 14.8618 -0.0924982 7.75201 -88.764 11.3581 0.392315 2.42105 -0.315005 0.498441 2.40145 -22.8321 -0.353226 2.42706 -2.81943 -0.353226 2.42705 81.4784 -50.1638 -113.638 38.6889 -18.1835 27.3048 -13.5648 2.46381 -87.5464 -31.3352 -1.62094 1.13426 -100.766 -42.4983 59.8461 -35.1271 1.05516 30.1293 14.0023 -3.4997 -94.4523 38.0879 4.60193 8.36777 12.8149 0.877546 -6.26638 -1.43052 2.57776 3.35699 
27.9428 87.8059 21.6043 77.7046 -44.2566 79.2194 -170.392 29.1225 82.6908 -50.2247 22.0848 -4.08105 65.7498 16.8502 25.2831 60.8183 25.228 -24.3749 165.822 52.4344 102.216 -116.051 14.1225 -7.20387 23.2007 0.803012 1.95609 20.8093 -2.50977 14.9463 -0.382445 7.76542 -89.047 11.343 -0.316504 1.93019 -0.32933 -0.231272 1.94224 -22.8552 -0.881893 1.74594 -2.84259 -0.881896 1.74593 80.687 -51.2174 -114.409 38.9269 -17.7883 31.6517 -12.3766 0.835345 -84.0859 -32.1966 -1.42438 0.250885 -102.011 -41.3286 57.3747 -29.8033 2.0645 22.7663 14.5586 -3.7486 -96.1937 39.843 4.92978 8.6029 13.5293 1.34026 -6.96039 -1.5996 3.28279 4.26844 
35.1096 89.7026 28.0774 78.4384 -42.3014 81.9401 -172.804 20.7416 85.7068 -45.8352 24.582 -2.35573 63.7449 13.9302 22.7256 65.9782 29.7267 -22.3441 163.016 57.691 106.242 -108.419 12.1131 -6.37294 31.0939 1.06714 1.90879 21.6416 -2.00882 12.3305 -0.835362 7.75007 -89.3515 11.3811 -1.35964 1.42828 -0.289973 -1.29548 1.48673 -22.8276 -1.72602 0.953614 -2.81493 -1.72601 0.953614 80.0582 -52.3921 -114.875 40.017 -18.1211 37.3315 -12.8147 -0.0234947 -80.8398 -32.0072 -1.21127 -0.420753 -100.018 -40.6869 60.2167 -27.0257 0.962042 17.0715 15.4036 -5.10314 -101.42 39.2391 4.59627 7.92321 11.31 2.36437 -7.53543 -1.04451 4.34364 4.9418 
42.9809 92.7129 35.1761 78.2767 -42.0426 83.7575 -173.909 11.1238 89.5229 -36.3528 29.5152 -1.11001 56.5826 4.11506 15.9824 70.5658 34.2795 -19.8216 165.599 59.8786 105.964 -95.7143 10.3439 -4.59324 37.3832 1.32388 1.90978 21.7687 -1.8971 11.6368 -1.15721 7.64171 -89.6317 11.6001 -2.12968 0.95391 -0.0694943 -2.08563 1.04674 -22.6182 -2.31786 0.26945 -2.60559 -2.31786 0.269448 79.1546 -53.1675 -115.873 41.5124 -19.1802 43.0939 -11.8216 -0.298555 -79.0717 -29.0512 -0.781188 -1.74565 -97.7776 -40.0119 63.5153 -26.5054 -0.71391 13.8848 16.222 -6.69411 -107.824 38.1846 4.66604 8.44663 9.02959 3.56466 -7.80464 -1.05063 5.48391 5.89233 
50.7234 95.3538 42.3242 79.062 -40.9675 85.0929 -173.87 -0.100343 90.0278 -22.6061 32.266 0.0206483 41.2819 -9.77733 3.75243 82.7368 37.0436 -31.7816 168.418 59.4235 102.532 -80.5859 10.6377 -1.94955 40.2991 1.81224 2.25645 21.6225 -2.01336 12.3329 -1.48369 7.61657 -89.8584 11.6517 -2.88494 0.581949 -0.0162766 -2.85651 0.708446 -22.577 -2.92634 -0.312747 -2.56435 -2.92635 -0.312761 79.4565 -53.4876 -115.32 42.6072 -18.8679 48.0831 -9.98956 -0.283544 -78.2005 -28.0638 -0.706655 -2.02325 -97.546 -39.924 63.8563 -25.9887 -3.78983 12.7249 16.4008 -8.12001 -114.599 35.5276 4.28933 8.33846 7.58268 4.158 -7.61376 -1.02967 5.98182 6.86139 
58.5971 97.8899 49.7372 78.5584 -40.2208 85.6611 -172.437 -8.79397 94.8338 -9.34167 33.2778 0.431825 27.7619 -17.1724 -5.84062 31.0673 3.6243 -18.316 172.403 56.9296 98.6987 -62.2237 8.35537 0.900338 42.4106 2.48498 2.73215 17.6396 -2.49263 11.049 -1.69856 7.51999 -90.1193 11.8412 -3.43385 0.129079 0.174818 -3.42484 0.280261 -22.3951 -3.31372 -0.91007 -2.38246 -3.31372 -0.91007 79.4777 -52.8787 -115.524 43.6002 -16.7588 52.5942 -8.98347 0.242655 -80.0249 -26.3281 -0.870998 -1.20692 -97.4334 -40.1769 64.1412 -25.624 -5.84721 12.0038 15.8183 -9.25285 -120.815 36.3417 3.8941 6.94311 7.0288 4.59266 -6.82938 -1.3951 6.23229 7.59205 
66.607 99.4919 57.3627 76.6511 -40.4365 83.763 -172.212 -9.02601 94.774 -16.565 27.9441 0.774883 31.6805 -15.0057 -1.17715 17.6586 -8.7457 -13.0443 177.964 54.1125 94.1507 -42.7885 5.51326 2.04188 43.3085 3.10924 3.22937 20.38 -2.3389 13.1226 -1.84841 7.29865 -90.1605 12.2845 -3.74959 0.101546 0.618966 -3.74151 0.266706 -21.9574 -3.60653 -1.03156 -1.94474 -3.60655 -1.03157 79.1439 -51.9169 -116.38 44.9824 -14.9923 56.4154 -10.8292 0.674401 -81.4196 -25.6642 -0.739271 -1.64227 -96.8877 -40.1026 64.9963 -25.783 -6.67718 12.013 15.323 -10.9494 -126.679 34.0719 3.19659 5.59201 6.73104 5.05962 -6.57646 -1.51482 6.65587 8.46325 
74.2351 100.112 65.0026 75.2034 -40.2591 80.5343 -172.004 -7.77797 93.7016 -27.8366 20.6071 0.695379 35.8261 -12.4282 1.01308 23.2293 -4.21555 -10.0795 -179.671 50.9383 90.6447 -27.3164 8.56118 2.7984 47.6311 2.53042 2.46588 17.4788 -3.17052 15.0239 -2.015 7.08858 -89.9691 12.7148 -3.98728 0.53258 1.04978 -3.95998 0.707818 -21.5339 -3.96272 -0.692337 -1.52126 -3.9627 -0.692329 80.7577 -50.7542 -114.481 46.1379 -14.4944 57.3135 -12.4244 1.03532 -82.3538 -24.509 -0.589622 -2.1593 -95.9962 -39.2901 66.1355 -27.1184 -5.52264 12.0359 15.6288 -12.7216 -130.183 33.678 3.86358 7.73947 7.79047 5.26707 -6.49447 -3.04466 6.78003 8.44169 
